<?xml version="1.0" encoding="UTF-8" standalone="no"?>
<svg
   width="64"
   height="64"
   version="1.1"
   id="svg4"
   sodipodi:docname="Affinity.svg"
   inkscape:version="1.4.2 (ebf0e940d0, 2025-05-08)"
   xmlns:inkscape="http://www.inkscape.org/namespaces/inkscape"
   xmlns:sodipodi="http://sodipodi.sourceforge.net/DTD/sodipodi-0.dtd"
   xmlns="http://www.w3.org/2000/svg"
   xmlns:svg="http://www.w3.org/2000/svg">
  <defs
     id="defs4" />
  <sodipodi:namedview
     id="namedview4"
     pagecolor="#505050"
     bordercolor="#eeeeee"
     borderopacity="1"
     inkscape:showpageshadow="0"
     inkscape:pageopacity="0"
     inkscape:pagecheckerboard="0"
     inkscape:deskcolor="#505050"
     showgrid="false"
     inkscape:zoom="9.7213859"
     inkscape:cx="31.888457"
     inkscape:cy="30.294034"
     inkscape:window-width="1720"
     inkscape:window-height="1338"
     inkscape:window-x="0"
     inkscape:window-y="0"
     inkscape:window-maximized="0"
     inkscape:current-layer="svg4" />
  <rect
     style="opacity:0.2"
     width="56"
     height="56"
     x="4"
     y="5"
     rx="16.8"
     ry="16.8"
     id="rect1" />
  <rect
     style="fill:#a7f076"
     width="56"
     height="56"
     x="4"
     y="4"
     rx="16.8"
     ry="16.8"
     id="rect2" />
  <path
     style="fill:#ffffff;opacity:0.2"
     d="M 20.800781 4 C 11.493582 4 4 11.493582 4 20.800781 L 4 21.800781 C 4 12.493582 11.493582 5 20.800781 5 L 43.199219 5 C 52.506418 5 60 12.493582 60 21.800781 L 60 20.800781 C 60 11.493582 52.506418 4 43.199219 4 L 20.800781 4 z"
     id="path4" />
  <path
     d="m 18.275029,15.030096 c 7.62e-4,-0.271301 -0.0061,-0.266611 0.0015,-0.533847 0.0061,-0.18838 0.346258,-0.243687 1.251069,-0.508611 12.555111,-3.676142 26.636942,-2.925779 28.983383,3.552525 3.136821,8.660567 -12.456093,11.434955 -19.244838,16.696589 -4.848983,3.758223 -3.108045,7.909036 0.25254,8.466528 8.5049,1.410913 15.579539,-14.654979 15.974243,-15.483748 0.05628,-0.118249 0.09368,-0.127208 2.439761,-0.121067 0.274517,7.02e-4 0.204493,0.234491 0.204493,1.341583 0,21.546371 0.0015,21.549352 -0.0138,21.576393 -0.04468,0.07791 -0.07503,0.06863 -7.842497,0.06863 -3.233908,0 -3.347886,0.0241 -3.322578,-0.127255 0.387856,-2.320511 4.50694,-9.048436 5.256876,-10.326087 2.216851,-3.776745 3.636748,-6.855155 3.677041,-7.099369 0.03447,-0.208709 -0.876237,-0.429902 -0.925429,-0.414309 -0.309976,0.09819 -4.052445,9.67237 -10.902362,15.181947 -8.043322,6.469443 -18.327819,3.667914 -19.129083,-4.468712 -1.556286,-15.803332 26.317457,-15.615624 30.531465,-21.335229 2.478313,-3.363786 -2.818421,-5.543396 -11.477012,-3.521878 -9.305013,2.172425 -15.489735,7.235163 -15.679702,7.207475 -0.03911,-0.0054 -0.03553,-0.02791 -0.03538,-10.151578 z"
     fill="#201d1b"
     id="path2"
     style="stroke-width:0.0240559" />
  <path
     d="m 18.479521,16.371678 c 7.62e-4,-0.271301 -0.0061,-0.26661 0.0015,-0.533846 0.0061,-0.18838 0.346259,-0.243687 1.251069,-0.508612 12.555111,-3.676141 26.636943,-2.925778 28.983383,3.552525 3.136822,8.660567 -12.456093,11.434956 -19.244837,16.69659 -4.848983,3.758223 -3.108046,7.909036 0.25254,8.466528 8.5049,1.410913 15.579539,-14.65498 15.974243,-15.483749 0.05628,-0.118248 0.09368,-0.127207 2.439761,-0.121066 0.274516,7.01e-4 0.204492,0.23449 0.204492,1.341582 0,21.546371 0.0015,21.549352 -0.0138,21.576393 -0.04468,0.07791 -0.07503,0.06863 -7.842496,0.06863 -3.233909,0 -3.347886,0.0241 -3.322579,-0.127254 0.387857,-2.320512 4.50694,-9.048436 5.256876,-10.326088 2.216852,-3.776745 3.636749,-6.855155 3.677042,-7.099369 0.03447,-0.208709 -0.876237,-0.429901 -0.925429,-0.414308 -0.309976,0.09819 -4.052445,9.67237 -10.902362,15.181946 C 26.225618,55.11102 15.941122,52.309492 15.139857,44.172865 13.583571,28.369533 41.457315,28.557241 45.671322,22.837636 48.149636,19.47385 42.852901,17.29424 34.194311,19.315759 24.889298,21.488184 18.704575,26.550921 18.514609,26.523233 18.4755,26.5178 18.479076,26.49532 18.479228,16.371656 Z"
     fill="#201d1b"
     id="path2-6"
     style="fill:#201d1b;fill-opacity:0.157297;stroke-width:0.0240559" />
</svg>
