<?xml version="1.0" encoding="UTF-8" standalone="no"?>
<!-- Created with Inkscape (http://www.inkscape.org/) -->

<svg
   width="512"
   height="512"
   viewBox="0 0 512 512"
   version="1.1"
   id="svg1"
   inkscape:version="1.4 (e7c3feb100, 2024-10-09)"
   sodipodi:docname="Jellyfin2.svg"
   xmlns:inkscape="http://www.inkscape.org/namespaces/inkscape"
   xmlns:sodipodi="http://sodipodi.sourceforge.net/DTD/sodipodi-0.dtd"
   xmlns="http://www.w3.org/2000/svg"
   xmlns:svg="http://www.w3.org/2000/svg">
  <sodipodi:namedview
     id="namedview1"
     pagecolor="#505050"
     bordercolor="#eeeeee"
     borderopacity="1"
     inkscape:showpageshadow="0"
     inkscape:pageopacity="0"
     inkscape:pagecheckerboard="0"
     inkscape:deskcolor="#505050"
     inkscape:document-units="px"
     inkscape:zoom="2.2988281"
     inkscape:cx="255.565"
     inkscape:cy="255.565"
     inkscape:window-width="3440"
     inkscape:window-height="1380"
     inkscape:window-x="0"
     inkscape:window-y="0"
     inkscape:window-maximized="1"
     inkscape:current-layer="g6" />
  <defs
     id="defs1" />
  <g
     inkscape:label="Layer 1"
     inkscape:groupmode="layer"
     id="layer1">
    <g
       id="g6"
       transform="matrix(11.25,0,0,11.25,-104,-109.625)">
      <path
         style="opacity:0.6"
         d="m 32.002082,13.000329 c -5.2934,0 -22.3325168,30.892279 -19.734375,36.109377 2.598141,5.217098 36.898971,5.156934 39.468751,0 2.56978,-5.156932 -14.441834,-36.109377 -19.734376,-36.109377 z m 0,7.921875 c 3.467912,0 14.617274,20.27893 12.933594,23.660158 -1.683678,3.38037 -24.159836,3.418186 -25.863282,0 -1.703445,-3.418188 9.461774,-23.660158 12.929688,-23.660158 z m -0.004,8.078126 c -1.63962,0 -6.918652,9.26728 -6.113282,10.832032 0.805372,1.564752 11.430822,1.547656 12.226564,0 0.795742,-1.547658 -4.47367,-10.831254 -6.113282,-10.832032 z"
         id="path2" />
      <path
         style="fill:#4287ea"
         d="m 32.000874,28 c -1.63962,0 -6.917838,9.268086 -6.112468,10.832838 0.805372,1.564752 11.42919,1.547656 12.224932,0 C 38.90908,37.28518 33.640486,28.000778 32.000874,28 Z"
         id="path3" />
      <path
         style="fill:#a245e9"
         d="m 32.002574,12 c -5.2934,0 -22.3330164,30.892608 -19.734875,36.109706 2.598142,5.217098 36.899971,5.156934 39.469751,0 C 54.30723,42.952774 37.295116,12 32.002574,12 Z m 12.933124,31.582778 c -1.683678,3.38037 -24.157646,3.418186 -25.861091,0 -1.703446,-3.418188 9.462633,-23.660009 12.930547,-23.660009 3.467912,0 14.614224,20.278781 12.930544,23.660009 z"
         id="path4" />
      <path
         style="opacity:0.5995936;fill:#ffffff;fill-opacity:1"
         d="M 32.001953,12 C 26.98563,12 11.431883,39.727948 12.027344,47.072266 12.692316,38.494823 27.192772,13 32.001953,13 36.810411,13 51.290598,38.544829 51.972656,47.085938 52.554407,39.79541 37.01869,12 32.001953,12 Z M 32,28 C 30.36889,28 25.142221,37.165063 25.880859,38.800781 26.458957,35.909991 30.583334,29 32,29 c 1.416906,6.72e-4 5.537524,6.924461 6.119141,9.806641 C 38.860652,37.200724 33.632684,28.000775 32,28 Z M 18.935547,43.070312 c -0.06822,0.646726 -0.03271,1.167824 0.138672,1.511719 1.703445,3.418186 24.17765,3.38037 25.861328,0 0.168934,-0.339259 0.203428,-0.854158 0.134765,-1.496093 -0.02755,0.188097 -0.06709,0.360183 -0.134765,0.496093 -1.683678,3.38037 -24.157883,3.418186 -25.861328,0 -0.06977,-0.139996 -0.110671,-0.317827 -0.138672,-0.511719 z"
         id="path6" />
    </g>
  </g>
</svg>
